<?xml version="1.0" encoding="utf-8"?>
<!-- Generator: Adobe Illustrator 21.1.0, SVG Export Plug-In . SVG Version: 6.00 Build 0)  -->
<svg version="1.1" id="Layer_1" xmlns="http://www.w3.org/2000/svg" xmlns:xlink="http://www.w3.org/1999/xlink" x="0px" y="0px"
	 viewBox="0 0 165.7 150.3" style="enable-background:new 0 0 165.7 150.3;" xml:space="preserve">
<style type="text/css">
	.st0{fill:#506BAF;}
	.st1{fill:#D98744;}
	.st2{fill-rule:evenodd;clip-rule:evenodd;fill:#506BAF;}
	.st3{fill-rule:evenodd;clip-rule:evenodd;fill:#D98744;}
	.st4{fill-rule:evenodd;clip-rule:evenodd;fill:#FFFFFF;}
</style>
<g>
	<g>
		<g>
			<g>
				<path class="st0" d="M320.3,127.2c-1.6-1.3-6.6-5.2-10.4-7.5c-0.1,0.4-6.2-20.7-8.4-27.4c-0.6-1.8-2.1-2.1-3.9-2.1
					c-0.1,0-7.2,0-14.6,0l-14.6,72.8l12.3,0c0.1-0.7,0.3-2.4,0.5-3.6c2.3-11.7,10-21.1,17.2-21.1c5.1,0,8.5,4.8,9.2,11.7l10.5,0
					c1.7-8.5,3.6-18,3.6-18C321.8,132,322.5,129,320.3,127.2z M283.2,129.1c-0.1,0.3-0.5,0.4-0.8,0.4l-4.4,0c-0.3,0-0.5-0.1-0.5-0.4
					l0.8-4.2c0.1-0.3,0.4-0.9,0.7-0.9l4.4,0c0.3,0,0.5,0.7,0.5,0.9L283.2,129.1z M302.9,120.3l-21.1-0.1c-1.2,0-2.3-1.2-1.9-3.2
					l3.7-18.5c0.4-2,2.2-4.3,3.4-4.2c0,0,10.5,0,10.8,0c1.4,0,1.8,1.5,2.4,3.1c1,3,5.6,16.9,5.7,19.4
					C305.9,119.3,305,120.3,302.9,120.3z"/>
			</g>
			<polygon class="st0" points="204.3,136.7 271.4,136.9 282.3,82.1 215.3,81.9 			"/>
			<line class="st0" x1="321.4" y1="130.4" x2="321.4" y2="130.4"/>
			<path class="st0" d="M214.1,159.5c-0.5,2.6-0.7,5.1-0.5,7.4c0.5,6.1,3.4,10.3,7.8,10.3c4.4,0,9-4.2,11.9-10.3
				c1.1-2.2,1.9-4.7,2.5-7.4c2-9.7-1.3-17.7-7.3-17.7C222.5,141.9,216.1,149.8,214.1,159.5z M218.3,159.5c1.2-6,5.2-10.9,8.9-10.9
				c3.7,0,5.7,4.9,4.5,11c-1.2,6-5.2,10.9-8.9,10.9C219.1,170.5,217,165.6,218.3,159.5z"/>
			<polygon class="st0" points="317.9,163.1 305.9,163 308,152.8 319.9,152.9 			"/>
			<g>
				<path class="st0" d="M212.1,159.2c1.7-8.3,6.1-15.5,11-19l-13.3,0l-4.5,22.5l6.3,0C211.7,161.7,211.8,160.4,212.1,159.2z"/>
				<path class="st0" d="M234.5,140.2c3.6,3.4,5.1,10.7,3.5,19c-0.2,1.2-0.7,2.5-1.1,3.6l33.8,0.1l4.6-22.7L234.5,140.2z"/>
			</g>
			<path class="st0" d="M283.3,159.7c-0.5,2.6-0.7,5.1-0.5,7.4c0.5,6.1,3.4,10.3,7.8,10.3c4.4,0,9-4.2,11.9-10.3
				c1.1-2.2,1.9-4.7,2.5-7.4c2-9.7-1.3-17.7-7.3-17.7C291.7,142.1,285.3,150,283.3,159.7z M287.5,159.7c1.2-6,5.2-10.9,8.9-10.9
				c3.7,0,5.7,4.9,4.5,11c-1.2,6-5.2,10.9-8.9,10.9C288.3,170.7,286.2,165.8,287.5,159.7z"/>
		</g>
	</g>
	<path class="st1" d="M275.1,105.9c-0.2-0.2-0.5-0.2-0.7,0l0,0l-6.4,5.3l0,0c-0.3,0.3-0.7,0.3-1,0c-0.3-0.3-0.3-0.7,0-1l0,0l5.3-6.4
		l0,0c0.2-0.2,0.2-0.5,0-0.7c-0.2-0.2-0.5-0.2-0.7,0l0,0l-6.4,5.4l0,0c-0.3,0.3-0.7,0.3-1,0c-0.3-0.3-0.3-0.7,0-1l0,0l5.3-6.4l0,0
		c0.2-0.2,0.2-0.5,0-0.7c-0.2-0.2-0.5-0.2-0.7,0l-6.4,5.4l0,0c-0.3,0.3-0.7,0.3-1,0c-0.3-0.3-0.3-0.7,0-1l0,0l5.4-6.4l0,0
		c0.2-0.2,0.2-0.5,0-0.7c-0.2-0.2-0.5-0.2-0.7,0l-6.4,5.4l-1.1,1.1l0,0c-2,2.2-2.3,5.3-1,7.9c-4,3.4-9.8,5.4-15.8,5.4
		c-11.6,0-21-7.1-21-15.8c0-1-0.8-1.9-1.9-1.9c-1,0-1.9,0.8-1.9,1.9c0,10.8,11.1,19.5,24.7,19.5c7,0,13.7-2.4,18.4-6.4
		c0.2,0.1,0.3,0.2,0.3,0.2c2.5,1.4,5.7,1,7.9-1l0,0l0.1-0.1c0.1,0,0.1-0.1,0.2-0.1l0,0l0.8-0.8l5.3-6.4l0,0l0,0
		C275.3,106.4,275.3,106.1,275.1,105.9z M219.1,102.6c-0.4,0-0.7-0.3-0.7-0.7c0-0.4,0.3-0.7,0.7-0.7c0.4,0,0.7,0.3,0.7,0.7
		C219.9,102.2,219.5,102.6,219.1,102.6z"/>
</g>
<g>
	<path class="st0" d="M312.7-13.4l-11.8-14.9c-1.1-1.4-2.9-2.3-4.7-2.3h-60.7c-1.8,0-3.5,0.9-4.6,2.3l-12.1,14.8
		c-1.2,1.5-2.6,4.5-2.6,6.6V4c1.9-1.5,2.6-2.6,4.3-3.1c0.1-1.2,0.6-2.4,1.3-3.5c1.1-1.9,3-3.2,5.1-3.8c0.8-0.2,1.5-0.3,2.2-0.3
		c2.8,0,5.4,1.4,6.8,3.7c0.4-0.1,0.9-0.1,1.3-0.1c1.4,0,2.7,0.4,3.8,1l6.5-1.7c0.8-0.2,1.7-0.3,2.5-0.3c4.5,0,8.4,3,9.6,7.4l12.7,49
		c0.7,2.6,0.3,5.2-1,7.5c-1.3,2.3-3.5,4.2-6,4.9l-5.7,1.8h47.8c4,0,7.7-3.9,7.7-8V-7C315.2-9,314-11.8,312.7-13.4z M223.1-13.8
		l3.9-3.7h26.5l2.6-5.6h-25.7l2.9-3.1c0.6-0.7,1.4-0.6,2.3-0.6h60.7c0.9,0,1.7-0.1,2.3,0.6l2.9,3.1h-26.2l1.5,5.6h28.1l3.9,3.7
		H223.1z"/>
	<path class="st0" d="M224.3,4.5l-1.6,0.4c-1.7,0.5-2.8,2.2-2.3,4l0,0.1c0.5,1.7,2.2,2.8,4,2.3l13.9-3.6c1.7-0.5,2.8-2.2,2.3-4
		l0-0.1c-0.5-1.7-2.2-2.8-4-2.3l-1.6,0.4c-0.9,0.2-1.8-0.3-2-1.2l0-0.1c-0.5-2-2.6-3.3-4.6-2.7l-0.1,0c-2,0.5-3.3,2.6-2.7,4.6l0,0.1
		C225.7,3.4,225.1,4.3,224.3,4.5z"/>
	<ellipse transform="matrix(0.9678 -0.2517 0.2517 0.9678 6.998 57.7304)" class="st1" cx="229.2" cy="1.5" rx="1.7" ry="1.7"/>
	<path class="st0" d="M249.2,50.3c0.2,0.6-0.2,1.2-0.8,1.3l-20.2,5.3c-0.6,0.2-1.2-0.2-1.3-0.8l-0.3-1.1c-0.2-0.6,0.2-1.2,0.8-1.3
		l20.2-5.3c0.6-0.2,1.2,0.2,1.3,0.8L249.2,50.3z"/>
	<path class="st0" d="M251.7,29.2l0.3,1.1c0.2,0.6-0.2,1.2-0.8,1.3l-27.7,7.2c-0.6,0.2-1.2-0.2-1.3-0.8l-0.3-1.1
		c-0.2-0.6,0.2-1.2,0.8-1.3l27.7-7.2C251,28.2,251.6,28.6,251.7,29.2z"/>
	<path class="st0" d="M248.7,22L221,29.2c-0.6,0.2-1.2-0.2-1.3-0.8l-0.3-1.1c-0.2-0.6,0.2-1.2,0.8-1.3l27.7-7.2
		c0.6-0.2,1.2,0.2,1.3,0.8l0.3,1.1C249.6,21.3,249.3,21.9,248.7,22z"/>
	<path class="st0" d="M248.1,41.5l-22.4,5.8c-0.6,0.2-1.2-0.2-1.3-0.8l-0.3-1.1c-0.2-0.6,0.2-1.2,0.8-1.3l22.4-5.8
		c0.6-0.2,1.2,0.2,1.3,0.8l0.3,1.1C249,40.7,248.7,41.3,248.1,41.5z"/>
	<path class="st1" d="M268.2,53.3l-12.7-49c-0.8-2.9-3.8-4.7-6.7-3.9l-6.5,1.7c0.2,0.3,0.3,0.7,0.4,1c0.8,3-1,6-3.9,6.7L225,13.4
		c-2.8,0.7-5.8-0.7-6.7-3.4c-0.2-0.5-0.3-1-0.3-1.5l-6.5,1.7c-2.9,0.8-4.7,3.8-3.9,6.7l12.7,49c0.8,2.9,3.8,4.7,6.7,3.9l37.3-9.7
		C267.2,59.3,269,56.3,268.2,53.3z M225.6,64.4l-11.1-42.6l37.3-9.7l11.1,42.6L225.6,64.4z"/>
</g>
<g>
	<path class="st2" d="M336,10.1h19.1l15.4,27l15.6-27h19.1c0.8,0,1.2,0.7,1.3,1.3L426,66.6c0.3,0.7-0.7,1.5-1.3,1.5H316.5
		c-0.7,0-1.5-0.7-1.3-1.5l19.4-55.1C335,10.8,335.1,10.1,336,10.1L336,10.1z"/>
	<path class="st3" d="M370.5,32.3L351.9-0.1c-1.8-3.2-2.8-6.9-2.8-10.7c0-11.9,9.7-21.5,21.6-21.5c11.9,0,21.5,9.6,21.5,21.5
		c0,4-1.2,7.9-3.2,11.2L370.5,32.3z"/>
	<path class="st4" d="M370.6-22.6c6.7,0,12.2,5.4,12.2,12.2c0,6.7-5.5,12.2-12.2,12.2c-6.7,0-12.2-5.5-12.2-12.2
		C358.4-17.2,363.9-22.6,370.6-22.6L370.6-22.6z"/>
</g>
<g>
	<g id="s0bnEN.tif">
		<g>
			<path class="st0" d="M81.6-47.4c-10,0-19.9,0-29.9,0c-3.6,0-3.8,0.3-3.1,3.9c0.2,1.3,0.6,2.6,0.7,3.9c0.2,2.5,1.2,4.4,3.6,5.5
				c1.2,0.5,2.3,1.5,2.8,2.7c1.1,2.9,3.3,3.3,6.1,3.3c6.4-0.1,12.8-0.1,19.2,0c2.1,0,3.5-0.5,4.7-2.5c2.6-4.4,7-6.1,11.4-4.8
				c4.5,1.3,7.3,5.1,7.3,9.8c0,4.4-2.9,8.4-7.1,9.6c-4.6,1.4-9-0.3-11.7-4.8c-1.1-1.8-2.3-2.3-4.2-2.3c-7,0-14,0.1-21.1,0
				c-1.9,0-3.1,0.6-4.2,2.3c-3.3,5.4-9.7,6.8-14.5,3.4c-5-3.5-5.8-10-1.8-15c1.1-1.3,1.4-2.5,1-4.2C35.8-63,30.6-89.5,25.5-116.1
				c-0.5-2.5-1.7-3.4-4.2-3.3c-1.6,0.1-3.3,0.1-4.9-0.1c-2.4-0.3-3.9-1.8-4-4.2c0-2.4,1.4-3.9,3.7-4.2c4.2-0.5,8.5-0.4,12.8,0
				c2.5,0.2,3.5,2.1,4,4.4c0.7,3.8,1.5,7.6,2.2,11.4c1,4.9,1,4.9,5.9,4.9c26.8,0,53.5,0,80.3,0c1.3,0,2.6,0,4,0
				c5,0.3,6.8,2.6,5.4,7.4c-3,11.1-6.1,22.2-9.2,33.2c-1.2,4.3-2.4,8.6-3.6,12.9c-1.6,5.6-2.3,6.2-8,6.2
				C100.5-47.4,91.1-47.4,81.6-47.4z M80.1-98.2c-12.6,0-25.2,0-37.8,0c-4,0-4.2,0.3-3.5,4.2C41-82.5,43.3-71,45.5-59.5
				c0.5,2.6,1.7,3.5,4.3,3.5c18.8-0.1,37.6-0.1,56.4,0c2.6,0,3.8-0.8,4.5-3.4c3.1-11.6,6.4-23.1,9.5-34.7c1.1-3.9,1-4-3.2-4
				C104.7-98.2,92.4-98.2,80.1-98.2z M47.5-20.7c2.6,0,4.8-2.2,4.9-4.9c0-2.7-2.1-4.7-4.9-4.7c-2.8,0-4.9,2-4.9,4.7
				C42.6-23,44.8-20.8,47.5-20.7z M99.4-25.7c0-2.7-2.1-4.7-4.9-4.7c-2.8,0-4.9,2.1-4.8,4.8c0,2.6,2.3,4.8,5,4.8
				C97.2-20.8,99.4-23,99.4-25.7z"/>
			<path class="st1" d="M76.7-83.9c-7,0-14,0-21,0c-1,0-2,0-3-0.3c-1-0.2-1.6-1-1.6-2c0-1,0.6-1.8,1.5-2c1-0.2,2-0.3,3-0.3
				c14.2,0,28.4,0,42.6,0c1.9,0,4.7-0.6,4.6,2.4c-0.1,2.7-2.8,2.1-4.6,2.1C91.1-83.9,83.9-83.9,76.7-83.9z"/>
			<path class="st1" d="M74.1-69.3c-5.8,0-11.6,0-17.3,0c-1,0-2-0.1-3-0.3c-1.1-0.3-1.8-1.1-1.7-2.2c0.1-1,0.7-1.7,1.7-1.9
				c1.1-0.2,2.2-0.4,3.3-0.4c11.3,0,22.5,0,33.8,0c0.8,0,1.6,0,2.4,0.1c1.5,0.2,3,0.6,2.8,2.5c-0.1,1.8-1.6,2.2-3.1,2.2
				C86.7-69.4,80.4-69.4,74.1-69.3C74.1-69.4,74.1-69.4,74.1-69.3z"/>
		</g>
	</g>
	<g>
		<path class="st0" d="M153.2-129.8c0,11.5-8.8,20.4-20.2,20.4c-11.4,0-20.3-8.9-20.3-20.3c0-11.3,8.9-20.2,20.1-20.3
			C144.2-150.1,153.2-141.2,153.2-129.8z M132.9-112.7c9.6,0,17.1-7.4,17.1-16.9c0-9.6-7.3-17.1-16.8-17.2
			c-9.8-0.1-17.3,7.3-17.3,17.1C115.9-120.1,123.3-112.7,132.9-112.7z"/>
		<path class="st0" d="M114.3-147.7c0-1.3,0.7-2.2,1.5-3c2.1-2.2,4.6-3.6,7.5-4.4c1-0.3,2-0.4,3,0c1.5,0.6,2.8,1.7,2.8,3.3
			c0,1.3-1.7,1.2-2.7,1.5c-3,1-5.7,2.6-8.1,4.7c-0.7,0.6-1.3,2-2.4,1.4C114.6-145,114.5-146.5,114.3-147.7z"/>
		<path class="st0" d="M151.7-147.9c-0.3,1.4-0.4,2.9-1.5,3.5c-1.3,0.7-1.9-0.8-2.7-1.4c-2.7-2.3-5.6-4-9-4.8
			c-2.2-0.5-2.1-1.5-0.8-2.9c0.4-0.4,0.8-1,1.3-1.2c2.9-1.5,5.3,0.1,7.7,1.4C149-152.1,151.1-150.6,151.7-147.9z"/>
		<path class="st1" d="M134.7-136.5c0,9.1,0.7,8.6-8.6,8.6c-1.6,0-3.3,0-4.9-0.1c-1.2-0.1-2.7-0.1-2.8-1.7c-0.1-1.7,1.5-1.7,2.7-1.8
			c2.2-0.1,4.5-0.1,6.7-0.1c2.3,0,3.3-1,3.3-3.3c-0.1-1.9-0.1-3.9,0.1-5.8c0.1-1.4-0.3-3.6,1.9-3.5c1.9,0,1.6,2,1.7,3.4
			C134.8-139.3,134.7-137.9,134.7-136.5z"/>
	</g>
</g>
<g id="M3Mg2J.tif">
	<g>
		<path class="st0" d="M61.6,110.2C49.3,98.4,36.9,86.7,25.7,73.9c-12.1-13.7-10.1-34.6,3.6-47.3C42.8,14.2,62.9,14.3,76.1,27
			c5.1,4.9,5.1,4.9,10,0.1c13-12.5,32.7-13,46.3-1c13.8,12,16.6,32.8,5.2,46.6c-10.8,13-23.3,24.4-35.5,36.1
			c-1-4.7,0.6-9.1,1.2-13.6c8.8-8.8,17.9-17.3,26.3-26.5c9.2-10.1,8-25.5-2.2-35.2c-10-9.5-24.9-9.5-35,0c-2.4,2.3-4.6,4.7-7,7
			c-3.2,3.2-5.2,3.2-8.4,0.1c-2.3-2.2-4.5-4.5-6.7-6.7c-10.1-9.9-25.4-9.9-35.5-0.2c-10.3,10-11,25.3-1.5,35.8
			c2.3,2.5,4.7,4.9,7.2,7.3c7.2,7,14,14.5,21.5,21.2C61.9,102,61.7,106.1,61.6,110.2z"/>
		<path class="st1" d="M102.8,95.1c-0.1,14.4-0.1,28.7,1,43.1c0.5,5.9-1.3,13.8-9.3,9.6c-4.9-2.6-1.7-15.8-1.4-20.5
			c0.4-7.8,0.9-15.7,1.3-23.5c0.2-3.4-2.1-2.1-3.9-4c-1.3-1.4-1.3-3.6-1.4-5.4c-0.3-13.1-0.5-26.3-0.7-39.4c0-2.7,1.4-3.6,3.8-3
			c4,0.9,6.6,3.3,8.3,7c1.6,3.5,2,7.2,2.1,11C102.9,78.3,102.9,86.7,102.8,95.1z"/>
		<path class="st1" d="M61.6,110.2c0.2-4.1,0.3-8.2,0.5-12.3c0.2-2.6,0.2-5.1,0.5-7.7c0.2-1.8-0.4-2.7-2-3.5
			c-4.7-2.4-6.9-6.6-6.8-11.8c0.1-4.1,0.5-8.2,1-12.3c0.2-1.7-0.4-3.5,1.1-4.8c1.4,0.6,1,1.7,1.1,3c0.4,3.9,0.6,7.7,1,11.6
			c0.1,0.9,0.2,2.1,1.4,2.1c1.3,0,1.3-1.2,1.4-2.1c0.2-2.2,0.2-4.5,0.6-6.7c0.4-2.4-0.2-6.1,1.4-7.9c1.2,0.8,1,1.8,1.2,3.1
			c0.3,3.7,0.6,7.5,0.9,11.2c0.1,1,0.1,2.3,1.6,2.3c1.3,0,1.2-1.2,1.3-2.1c0.4-3.6,0.6-7.2,1-10.8c0.1-0.8-0.3-2.3,0.3-2.9
			c2-2.1,1.9,3.6,2,4.2c0.2,3.2,0.5,6.3,0.8,9.5c0.1,1.1,0.1,2.3,1.6,2.2c1.2-0.1,1.1-1.3,1.2-2.2c0.3-3.4,0.5-6.8,0.9-10.2
			c0.2-1.6,0-3.9,1.8-4.3c1.6,5.1,1.2,11.7,1.5,17c0.3,5.4-2.1,9.5-6.9,12.1c-1.3,0.7-2,1.3-1.9,2.9c0.4,6,0.6,11.9,0.9,17.9
			c0.2,4.4,0.5,8.8,0.7,13.2c0.1,5,0.3,10,0.4,15.1c0.1,3.8-1.9,5.9-5.7,5.9c-3.7,0.1-6-2-5.9-5.7C60.8,127.4,61.2,118.8,61.6,110.2
			z"/>
		<path class="st0" d="M71.5,120.8c-0.2-4.4-0.5-8.8-0.7-13.2c3.3,2.3,5.8,5.4,8.6,8.2c1.4,1.4,2.2,1.5,3.6,0
			c3.6-3.8,7.5-7.4,11.2-11.1c0.2,4.5,0,8.9-0.7,13.3c-2.3,2.3-4.7,4.5-7,6.8c-3.6,3.4-7,3.4-10.7-0.1
			C74.4,123.5,73,122.2,71.5,120.8z"/>
	</g>
</g>
</svg>
